<svg width="40" height="40" viewBox="0 0 40 40" fill="none" xmlns="http://www.w3.org/2000/svg" xmlns:xlink="http://www.w3.org/1999/xlink">
<path d="M3.092,15.782L3.773,14.445L3.773,14.445L3.092,15.782ZM2.218,14.908L3.554,14.227L3.554,14.227L2.218,14.908ZM15.782,14.908L14.446,14.227L14.446,14.227L15.782,14.908ZM14.908,15.782L14.227,14.445L14.227,14.445L14.908,15.782ZM14.908,2.218L14.227,3.554L14.227,3.554L14.908,2.218ZM15.782,3.092L14.446,3.773L14.446,3.773L15.782,3.092ZM3.092,2.218L2.411,0.881L2.411,0.881L3.092,2.218ZM2.218,3.092L0.881,2.411L0.881,2.411L2.218,3.092ZM25.092,15.782L25.773,14.445L25.773,14.445L25.092,15.782ZM24.218,14.908L25.554,14.227L25.554,14.227L24.218,14.908ZM37.782,14.908L36.446,14.227L36.446,14.227L37.782,14.908ZM36.908,15.782L36.227,14.445L36.227,14.445L36.908,15.782ZM36.908,2.218L36.227,3.554L36.227,3.554L36.908,2.218ZM37.782,3.092L36.446,3.773L36.446,3.773L37.782,3.092ZM25.092,2.218L24.411,0.881L24.411,0.881L25.092,2.218ZM24.218,3.092L22.881,2.411L22.881,2.411L24.218,3.092ZM25.092,37.782L25.773,36.446L25.773,36.446L25.092,37.782ZM24.218,36.908L25.554,36.227L25.554,36.227L24.218,36.908ZM37.782,36.908L36.446,36.227L36.446,36.227L37.782,36.908ZM36.908,37.782L36.227,36.446L36.227,36.446L36.908,37.782ZM36.908,24.218L36.227,25.554L36.227,25.554L36.908,24.218ZM37.782,25.092L36.446,25.773L36.446,25.773L37.782,25.092ZM25.092,24.218L24.411,22.881L24.411,22.881L25.092,24.218ZM24.218,25.092L22.881,24.411L22.881,24.411L24.218,25.092ZM3.092,37.782L3.773,36.446L3.773,36.446L3.092,37.782ZM2.218,36.908L3.554,36.227L3.554,36.227L2.218,36.908ZM15.782,36.908L14.446,36.227L14.446,36.227L15.782,36.908ZM14.908,37.782L14.227,36.446L14.227,36.446L14.908,37.782ZM14.908,24.218L14.227,25.554L14.227,25.554L14.908,24.218ZM15.782,25.092L14.446,25.773L14.446,25.773L15.782,25.092ZM3.092,24.218L2.411,22.881L2.411,22.881L3.092,24.218ZM2.218,25.092L0.881,24.411L0.881,24.411L2.218,25.092ZM5.2,3.5L12.8,3.5L12.8,0.5L5.2,0.5L5.2,3.5ZM14.5,5.2L14.5,12.8L17.5,12.8L17.5,5.2L14.5,5.2ZM12.8,14.5L5.2,14.5L5.2,17.5L12.8,17.5L12.8,14.5ZM3.5,12.8L3.5,5.2L0.5,5.2L0.5,12.8L3.5,12.8ZM5.2,14.5C4.615,14.5 4.267,14.499 4.009,14.478C3.768,14.458 3.74,14.429 3.773,14.445L2.411,17.119C2.872,17.353 3.338,17.433 3.764,17.468C4.173,17.501 4.665,17.5 5.2,17.5L5.2,14.5ZM0.5,12.8C0.5,13.335 0.499,13.827 0.532,14.236C0.567,14.662 0.647,15.128 0.881,15.589L3.554,14.227C3.571,14.26 3.542,14.232 3.522,13.991C3.501,13.733 3.5,13.385 3.5,12.8L0.5,12.8ZM3.773,14.445C3.679,14.398 3.602,14.321 3.554,14.227L0.881,15.589C1.217,16.248 1.752,16.783 2.411,17.119L3.773,14.445ZM14.5,12.8C14.5,13.385 14.499,13.733 14.478,13.991C14.458,14.232 14.429,14.26 14.446,14.227L17.119,15.589C17.353,15.128 17.433,14.662 17.468,14.236C17.501,13.827 17.5,13.335 17.5,12.8L14.5,12.8ZM12.8,17.5C13.335,17.5 13.827,17.501 14.236,17.468C14.662,17.433 15.128,17.353 15.589,17.119L14.227,14.445C14.26,14.429 14.232,14.458 13.991,14.478C13.733,14.499 13.385,14.5 12.8,14.5L12.8,17.5ZM14.446,14.227C14.398,14.321 14.321,14.398 14.227,14.445L15.589,17.119C16.248,16.783 16.783,16.248 17.119,15.589L14.446,14.227ZM12.8,3.5C13.385,3.5 13.733,3.501 13.991,3.522C14.232,3.542 14.26,3.571 14.227,3.554L15.589,0.881C15.128,0.647 14.662,0.567 14.236,0.532C13.827,0.499 13.335,0.5 12.8,0.5L12.8,3.5ZM17.5,5.2C17.5,4.665 17.501,4.173 17.468,3.764C17.433,3.338 17.353,2.872 17.119,2.411L14.446,3.773C14.429,3.74 14.458,3.768 14.478,4.009C14.499,4.267 14.5,4.615 14.5,5.2L17.5,5.2ZM14.227,3.554C14.321,3.602 14.398,3.679 14.446,3.773L17.119,2.411C16.783,1.752 16.248,1.217 15.589,0.881L14.227,3.554ZM5.2,0.5C4.665,0.5 4.173,0.499 3.764,0.532C3.338,0.567 2.872,0.647 2.411,0.881L3.773,3.554C3.74,3.571 3.768,3.542 4.009,3.522C4.267,3.501 4.615,3.5 5.2,3.5L5.2,0.5ZM3.5,5.2C3.5,4.615 3.501,4.267 3.522,4.009C3.542,3.768 3.571,3.74 3.554,3.773L0.881,2.411C0.647,2.872 0.567,3.338 0.532,3.764C0.499,4.173 0.5,4.665 0.5,5.2L3.5,5.2ZM2.411,0.881C1.752,1.217 1.217,1.752 0.881,2.411L3.554,3.773C3.602,3.679 3.679,3.602 3.773,3.554L2.411,0.881ZM27.2,3.5L34.8,3.5L34.8,0.5L27.2,0.5L27.2,3.5ZM36.5,5.2L36.5,12.8L39.5,12.8L39.5,5.2L36.5,5.2ZM34.8,14.5L27.2,14.5L27.2,17.5L34.8,17.5L34.8,14.5ZM25.5,12.8L25.5,5.2L22.5,5.2L22.5,12.8L25.5,12.8ZM27.2,14.5C26.615,14.5 26.267,14.499 26.009,14.478C25.768,14.458 25.74,14.429 25.773,14.445L24.411,17.119C24.872,17.353 25.338,17.433 25.764,17.468C26.173,17.501 26.665,17.5 27.2,17.5L27.2,14.5ZM22.5,12.8C22.5,13.335 22.499,13.827 22.532,14.236C22.567,14.662 22.647,15.128 22.881,15.589L25.554,14.227C25.571,14.26 25.542,14.232 25.522,13.991C25.501,13.733 25.5,13.385 25.5,12.8L22.5,12.8ZM25.773,14.445C25.679,14.398 25.602,14.321 25.554,14.227L22.881,15.589C23.217,16.248 23.752,16.783 24.411,17.119L25.773,14.445ZM36.5,12.8C36.5,13.385 36.499,13.733 36.478,13.991C36.458,14.232 36.429,14.26 36.446,14.227L39.119,15.589C39.353,15.128 39.433,14.662 39.468,14.236C39.501,13.827 39.5,13.335 39.5,12.8L36.5,12.8ZM34.8,17.5C35.335,17.5 35.827,17.501 36.236,17.468C36.662,17.433 37.128,17.353 37.589,17.119L36.227,14.445C36.26,14.429 36.232,14.458 35.991,14.478C35.733,14.499 35.385,14.5 34.8,14.5L34.8,17.5ZM36.446,14.227C36.398,14.321 36.321,14.398 36.227,14.445L37.589,17.119C38.248,16.783 38.783,16.248 39.119,15.589L36.446,14.227ZM34.8,3.5C35.385,3.5 35.733,3.501 35.991,3.522C36.232,3.542 36.26,3.571 36.227,3.554L37.589,0.881C37.128,0.647 36.662,0.567 36.236,0.532C35.827,0.499 35.335,0.5 34.8,0.5L34.8,3.5ZM39.5,5.2C39.5,4.665 39.501,4.173 39.468,3.764C39.433,3.338 39.353,2.872 39.119,2.411L36.446,3.773C36.429,3.74 36.458,3.768 36.478,4.009C36.499,4.267 36.5,4.615 36.5,5.2L39.5,5.2ZM36.227,3.554C36.321,3.602 36.398,3.679 36.446,3.773L39.119,2.411C38.783,1.752 38.248,1.217 37.589,0.881L36.227,3.554ZM27.2,0.5C26.665,0.5 26.173,0.499 25.764,0.532C25.338,0.567 24.872,0.647 24.411,0.881L25.773,3.554C25.74,3.571 25.768,3.542 26.009,3.522C26.267,3.501 26.615,3.5 27.2,3.5L27.2,0.5ZM25.5,5.2C25.5,4.615 25.501,4.267 25.522,4.009C25.542,3.768 25.571,3.74 25.554,3.773L22.881,2.411C22.647,2.872 22.567,3.338 22.532,3.764C22.499,4.173 22.5,4.665 22.5,5.2L25.5,5.2ZM24.411,0.881C23.752,1.217 23.217,1.752 22.881,2.411L25.554,3.773C25.602,3.679 25.679,3.602 25.773,3.554L24.411,0.881ZM27.2,25.5L34.8,25.5L34.8,22.5L27.2,22.5L27.2,25.5ZM36.5,27.2L36.5,34.8L39.5,34.8L39.5,27.2L36.5,27.2ZM34.8,36.5L27.2,36.5L27.2,39.5L34.8,39.5L34.8,36.5ZM25.5,34.8L25.5,27.2L22.5,27.2L22.5,34.8L25.5,34.8ZM27.2,36.5C26.615,36.5 26.267,36.499 26.009,36.478C25.768,36.458 25.74,36.429 25.773,36.446L24.411,39.119C24.872,39.353 25.338,39.433 25.764,39.468C26.173,39.501 26.665,39.5 27.2,39.5L27.2,36.5ZM22.5,34.8C22.5,35.335 22.499,35.827 22.532,36.236C22.567,36.662 22.647,37.128 22.881,37.589L25.554,36.227C25.571,36.26 25.542,36.232 25.522,35.991C25.501,35.733 25.5,35.385 25.5,34.8L22.5,34.8ZM25.773,36.446C25.679,36.398 25.602,36.321 25.554,36.227L22.881,37.589C23.217,38.248 23.752,38.783 24.411,39.119L25.773,36.446ZM36.5,34.8C36.5,35.385 36.499,35.733 36.478,35.991C36.458,36.232 36.429,36.26 36.446,36.227L39.119,37.589C39.353,37.128 39.433,36.662 39.468,36.236C39.501,35.827 39.5,35.335 39.5,34.8L36.5,34.8ZM34.8,39.5C35.335,39.5 35.827,39.501 36.236,39.468C36.662,39.433 37.128,39.353 37.589,39.119L36.227,36.446C36.26,36.429 36.232,36.458 35.991,36.478C35.733,36.499 35.385,36.5 34.8,36.5L34.8,39.5ZM36.446,36.227C36.398,36.321 36.321,36.398 36.227,36.446L37.589,39.119C38.248,38.783 38.783,38.248 39.119,37.589L36.446,36.227ZM34.8,25.5C35.385,25.5 35.733,25.501 35.991,25.522C36.232,25.542 36.26,25.571 36.227,25.554L37.589,22.881C37.128,22.647 36.662,22.567 36.236,22.532C35.827,22.499 35.335,22.5 34.8,22.5L34.8,25.5ZM39.5,27.2C39.5,26.665 39.501,26.173 39.468,25.764C39.433,25.338 39.353,24.872 39.119,24.411L36.446,25.773C36.429,25.74 36.458,25.768 36.478,26.009C36.499,26.267 36.5,26.615 36.5,27.2L39.5,27.2ZM36.227,25.554C36.321,25.602 36.398,25.679 36.446,25.773L39.119,24.411C38.783,23.752 38.248,23.217 37.589,22.881L36.227,25.554ZM27.2,22.5C26.665,22.5 26.173,22.499 25.764,22.532C25.338,22.567 24.872,22.647 24.411,22.881L25.773,25.554C25.74,25.571 25.768,25.542 26.009,25.522C26.267,25.501 26.615,25.5 27.2,25.5L27.2,22.5ZM25.5,27.2C25.5,26.615 25.501,26.267 25.522,26.009C25.542,25.768 25.571,25.74 25.554,25.773L22.881,24.411C22.647,24.872 22.567,25.338 22.532,25.764C22.499,26.173 22.5,26.665 22.5,27.2L25.5,27.2ZM24.411,22.881C23.752,23.217 23.217,23.752 22.881,24.411L25.554,25.773C25.602,25.679 25.679,25.602 25.773,25.554L24.411,22.881ZM5.2,25.5L12.8,25.5L12.8,22.5L5.2,22.5L5.2,25.5ZM14.5,27.2L14.5,34.8L17.5,34.8L17.5,27.2L14.5,27.2ZM12.8,36.5L5.2,36.5L5.2,39.5L12.8,39.5L12.8,36.5ZM3.5,34.8L3.5,27.2L0.5,27.2L0.5,34.8L3.5,34.8ZM5.2,36.5C4.615,36.5 4.267,36.499 4.009,36.478C3.768,36.458 3.74,36.429 3.773,36.446L2.411,39.119C2.872,39.353 3.338,39.433 3.764,39.468C4.173,39.501 4.665,39.5 5.2,39.5L5.2,36.5ZM0.5,34.8C0.5,35.335 0.499,35.827 0.532,36.236C0.567,36.662 0.647,37.128 0.881,37.589L3.554,36.227C3.571,36.26 3.542,36.232 3.522,35.991C3.501,35.733 3.5,35.385 3.5,34.8L0.5,34.8ZM3.773,36.446C3.679,36.398 3.602,36.321 3.554,36.227L0.881,37.589C1.217,38.248 1.752,38.783 2.411,39.119L3.773,36.446ZM14.5,34.8C14.5,35.385 14.499,35.733 14.478,35.991C14.458,36.232 14.429,36.26 14.446,36.227L17.119,37.589C17.353,37.128 17.433,36.662 17.468,36.236C17.501,35.827 17.5,35.335 17.5,34.8L14.5,34.8ZM12.8,39.5C13.335,39.5 13.827,39.501 14.236,39.468C14.662,39.433 15.128,39.353 15.589,39.119L14.227,36.446C14.26,36.429 14.232,36.458 13.991,36.478C13.733,36.499 13.385,36.5 12.8,36.5L12.8,39.5ZM14.446,36.227C14.398,36.321 14.321,36.398 14.227,36.446L15.589,39.119C16.248,38.783 16.783,38.248 17.119,37.589L14.446,36.227ZM12.8,25.5C13.385,25.5 13.733,25.501 13.991,25.522C14.232,25.542 14.26,25.571 14.227,25.554L15.589,22.881C15.128,22.647 14.662,22.567 14.236,22.532C13.827,22.499 13.335,22.5 12.8,22.5L12.8,25.5ZM17.5,27.2C17.5,26.665 17.501,26.173 17.468,25.764C17.433,25.338 17.353,24.872 17.119,24.411L14.446,25.773C14.429,25.74 14.458,25.768 14.478,26.009C14.499,26.267 14.5,26.615 14.5,27.2L17.5,27.2ZM14.227,25.554C14.321,25.602 14.398,25.679 14.446,25.773L17.119,24.411C16.783,23.752 16.248,23.217 15.589,22.881L14.227,25.554ZM5.2,22.5C4.665,22.5 4.173,22.499 3.764,22.532C3.338,22.567 2.872,22.647 2.411,22.881L3.773,25.554C3.74,25.571 3.768,25.542 4.009,25.522C4.267,25.501 4.615,25.5 5.2,25.5L5.2,22.5ZM3.5,27.2C3.5,26.615 3.501,26.267 3.522,26.009C3.542,25.768 3.571,25.74 3.554,25.773L0.881,24.411C0.647,24.872 0.567,25.338 0.532,25.764C0.499,26.173 0.5,26.665 0.5,27.2L3.5,27.2ZM2.411,22.881C1.752,23.217 1.217,23.752 0.881,24.411L3.554,25.773C3.602,25.679 3.679,25.602 3.773,25.554L2.411,22.881Z" fill="#1B281B"/>
</svg>
