<svg width="40" height="40" viewBox="0 0 40 40" fill="none" xmlns="http://www.w3.org/2000/svg" xmlns:xlink="http://www.w3.org/1999/xlink">
<path d="M36.939,39.061C37.525,39.646 38.475,39.646 39.061,39.061C39.646,38.475 39.646,37.525 39.061,36.939L36.939,39.061ZM30.361,28.239C29.775,27.654 28.825,27.654 28.239,28.239C27.654,28.825 27.654,29.775 28.239,30.361L30.361,28.239ZM39.061,36.939L30.361,28.239L28.239,30.361L36.939,39.061L39.061,36.939ZM32.5,18C32.5,26.008 26.008,32.5 18,32.5L18,35.5C27.665,35.5 35.5,27.665 35.5,18L32.5,18ZM18,32.5C9.992,32.5 3.5,26.008 3.5,18L0.5,18C0.5,27.665 8.335,35.5 18,35.5L18,32.5ZM3.5,18C3.5,9.992 9.992,3.5 18,3.5L18,0.5C8.335,0.5 0.5,8.335 0.5,18L3.5,18ZM18,3.5C26.008,3.5 32.5,9.992 32.5,18L35.5,18C35.5,8.335 27.665,0.5 18,0.5L18,3.5Z" fill="#D9D9D9"/>
</svg>
