<svg width="20" height="12" viewBox="0 0 20 12" fill="none" xmlns="http://www.w3.org/2000/svg" xmlns:xlink="http://www.w3.org/1999/xlink">
<path d="M5.725,0C3.302,0 2.091,0 1.53,0.479C1.043,0.895 0.784,1.519 0.835,2.157C0.892,2.892 1.749,3.749 3.463,5.463L7.737,9.737C8.529,10.529 8.925,10.925 9.382,11.074C9.784,11.204 10.216,11.204 10.618,11.074C11.075,10.925 11.471,10.529 12.263,9.737L16.537,5.463C18.251,3.749 19.108,2.892 19.165,2.157C19.216,1.519 18.957,0.895 18.47,0.479C17.909,0 16.698,0 14.275,0L5.725,0Z" fill="#142E15" fill-opacity="0.62"/>
</svg>
