<svg width="40" height="44" viewBox="0 0 40 44" fill="none" xmlns="http://www.w3.org/2000/svg" xmlns:xlink="http://www.w3.org/1999/xlink">
<path d="M38,19.367C38.828,19.367 39.5,18.695 39.5,17.867C39.5,17.038 38.828,16.367 38,16.367L38,19.367ZM2,16.367C1.172,16.367 0.5,17.038 0.5,17.867C0.5,18.695 1.172,19.367 2,19.367L2,16.367ZM5.276,41.213L4.595,42.549L5.276,41.213ZM2.654,38.591L1.317,39.272L2.654,38.591ZM37.346,38.591L38.683,39.272L37.346,38.591ZM34.724,41.213L35.405,42.549L34.724,41.213ZM34.724,6.521L35.405,5.184L34.724,6.521ZM37.346,9.143L38.683,8.462L37.346,9.143ZM5.276,6.521L4.595,5.184L5.276,6.521ZM2.654,9.143L1.317,8.462L2.654,9.143ZM29.5,1.867C29.5,1.038 28.828,0.367 28,0.367C27.172,0.367 26.5,1.038 26.5,1.867L29.5,1.867ZM26.5,9.867C26.5,10.695 27.172,11.367 28,11.367C28.828,11.367 29.5,10.695 29.5,9.867L26.5,9.867ZM13.5,1.867C13.5,1.038 12.828,0.367 12,0.367C11.172,0.367 10.5,1.038 10.5,1.867L13.5,1.867ZM10.5,9.867C10.5,10.695 11.172,11.367 12,11.367C12.828,11.367 13.5,10.695 13.5,9.867L10.5,9.867ZM38,16.367L2,16.367L2,19.367L38,19.367L38,16.367ZM11.6,7.367L28.4,7.367L28.4,4.367L11.6,4.367L11.6,7.367ZM36.5,15.467L36.5,32.267L39.5,32.267L39.5,15.467L36.5,15.467ZM28.4,40.367L11.6,40.367L11.6,43.367L28.4,43.367L28.4,40.367ZM3.5,32.267L3.5,15.467L0.5,15.467L0.5,32.267L3.5,32.267ZM11.6,40.367C9.895,40.367 8.707,40.365 7.781,40.29C6.874,40.216 6.352,40.077 5.957,39.876L4.595,42.549C5.483,43.002 6.444,43.191 7.537,43.28C8.613,43.368 9.945,43.367 11.6,43.367L11.6,40.367ZM0.5,32.267C0.5,33.922 0.499,35.254 0.587,36.33C0.676,37.423 0.865,38.383 1.317,39.272L3.99,37.91C3.789,37.515 3.651,36.993 3.577,36.085C3.501,35.16 3.5,33.972 3.5,32.267L0.5,32.267ZM5.957,39.876C5.11,39.445 4.422,38.756 3.99,37.91L1.317,39.272C2.037,40.683 3.184,41.83 4.595,42.549L5.957,39.876ZM36.5,32.267C36.5,33.972 36.499,35.16 36.423,36.085C36.349,36.993 36.211,37.515 36.01,37.91L38.683,39.272C39.135,38.383 39.324,37.423 39.413,36.33C39.501,35.254 39.5,33.922 39.5,32.267L36.5,32.267ZM28.4,43.367C30.055,43.367 31.387,43.368 32.463,43.28C33.556,43.191 34.516,43.002 35.405,42.549L34.043,39.876C33.648,40.077 33.126,40.216 32.219,40.29C31.293,40.365 30.105,40.367 28.4,40.367L28.4,43.367ZM36.01,37.91C35.578,38.756 34.89,39.445 34.043,39.876L35.405,42.549C36.816,41.83 37.963,40.683 38.683,39.272L36.01,37.91ZM28.4,7.367C30.105,7.367 31.293,7.368 32.219,7.443C33.126,7.518 33.648,7.656 34.043,7.857L35.405,5.184C34.516,4.731 33.556,4.543 32.463,4.453C31.387,4.366 30.055,4.367 28.4,4.367L28.4,7.367ZM39.5,15.467C39.5,13.811 39.501,12.48 39.413,11.404C39.324,10.31 39.135,9.35 38.683,8.462L36.01,9.824C36.211,10.219 36.349,10.74 36.423,11.648C36.499,12.573 36.5,13.762 36.5,15.467L39.5,15.467ZM34.043,7.857C34.89,8.289 35.578,8.977 36.01,9.824L38.683,8.462C37.963,7.051 36.816,5.903 35.405,5.184L34.043,7.857ZM11.6,4.367C9.945,4.367 8.613,4.366 7.537,4.453C6.444,4.543 5.483,4.731 4.595,5.184L5.957,7.857C6.352,7.656 6.874,7.518 7.781,7.443C8.707,7.368 9.895,7.367 11.6,7.367L11.6,4.367ZM3.5,15.467C3.5,13.762 3.501,12.573 3.577,11.648C3.651,10.74 3.789,10.219 3.99,9.824L1.317,8.462C0.865,9.35 0.676,10.31 0.587,11.404C0.499,12.48 0.5,13.811 0.5,15.467L3.5,15.467ZM4.595,5.184C3.184,5.903 2.037,7.051 1.317,8.462L3.99,9.824C4.422,8.977 5.11,8.289 5.957,7.857L4.595,5.184ZM26.5,1.867L26.5,9.867L29.5,9.867L29.5,1.867L26.5,1.867ZM10.5,1.867L10.5,9.867L13.5,9.867L13.5,1.867L10.5,1.867Z" fill="#357937"/>
</svg>
