<svg width="40" height="28" viewBox="0 0 40 28" fill="none" xmlns="http://www.w3.org/2000/svg" xmlns:xlink="http://www.w3.org/1999/xlink">
<path d="M2,12.5C1.172,12.5 0.5,13.172 0.5,14C0.5,14.828 1.172,15.5 2,15.5L2,12.5ZM38,15.5C38.828,15.5 39.5,14.828 39.5,14C39.5,13.172 38.828,12.5 38,12.5L38,15.5ZM2,0.5C1.172,0.5 0.5,1.172 0.5,2C0.5,2.828 1.172,3.5 2,3.5L2,0.5ZM38,3.5C38.828,3.5 39.5,2.828 39.5,2C39.5,1.172 38.828,0.5 38,0.5L38,3.5ZM2,24.5C1.172,24.5 0.5,25.172 0.5,26C0.5,26.828 1.172,27.5 2,27.5L2,24.5ZM38,27.5C38.828,27.5 39.5,26.828 39.5,26C39.5,25.172 38.828,24.5 38,24.5L38,27.5ZM2,15.5L38,15.5L38,12.5L2,12.5L2,15.5ZM2,3.5L38,3.5L38,0.5L2,0.5L2,3.5ZM2,27.5L38,27.5L38,24.5L2,24.5L2,27.5Z" fill="#1B281B"/>
</svg>
