<svg width="54" height="54" viewBox="0 0 54 54" fill="none" xmlns="http://www.w3.org/2000/svg" xmlns:xlink="http://www.w3.org/1999/xlink">
<path d="M7.436,7.435C9.42,5.451 13.187,4.692 18.544,6.267C18.921,6.378 19.303,6.5 19.688,6.633C17.26,8.356 14.88,10.362 12.622,12.621C11.748,13.494 10.914,14.384 10.121,15.286C9.027,16.53 9.148,18.426 10.392,19.52C11.636,20.614 13.532,20.493 14.626,19.249C15.335,18.443 16.081,17.646 16.864,16.863C19.829,13.899 22.968,11.477 26.057,9.637C29.146,11.477 32.285,13.899 35.249,16.863C38.613,20.227 41.279,23.816 43.187,27.301C43.246,27.431 43.314,27.556 43.39,27.677C44.47,29.701 45.292,31.687 45.845,33.569C47.421,38.925 46.661,42.692 44.677,44.676C42.693,46.66 38.926,47.42 33.57,45.844C33.192,45.733 32.81,45.611 32.425,45.479C34.854,43.755 37.233,41.749 39.492,39.491C40.327,38.655 41.127,37.805 41.889,36.943C42.987,35.702 42.871,33.806 41.629,32.708C40.388,31.61 38.492,31.727 37.395,32.968C36.714,33.738 35.998,34.499 35.249,35.248C32.285,38.212 29.146,40.635 26.057,42.474C22.968,40.635 19.829,38.212 16.864,35.248C11.422,29.805 7.807,23.775 6.268,18.542C4.693,13.186 5.452,9.419 7.436,7.435ZM20.237,0.511C22.144,1.072 24.096,1.843 26.057,2.811C28.018,1.843 29.97,1.072 31.877,0.511C38.122,-1.326 44.655,-1.072 48.92,3.192C51.838,6.111 52.879,10.143 52.659,14.318C52.463,18.038 51.271,22.064 49.302,26.056C50.269,28.016 51.041,29.969 51.601,31.876C53.438,38.121 53.184,44.654 48.92,48.919C44.655,53.183 38.122,53.437 31.877,51.6C29.97,51.04 28.018,50.268 26.057,49.301C24.096,50.268 22.144,51.04 20.237,51.6C13.991,53.437 7.458,53.183 3.194,48.919C0.277,46.003 -0.764,41.974 -0.546,37.802C-0.352,34.08 0.841,30.051 2.812,26.056C1.845,24.095 1.073,22.143 0.512,20.236C-1.325,13.99 -1.071,7.457 3.194,3.192C7.458,-1.072 13.991,-1.326 20.237,0.511ZM39.492,12.621C37.233,10.362 34.854,8.356 32.425,6.633C32.81,6.5 33.192,6.378 33.57,6.267C38.926,4.692 42.693,5.451 44.677,7.435C46.046,8.804 46.828,10.965 46.668,14.003C46.577,15.72 46.184,17.64 45.48,19.687C43.756,17.259 41.75,14.879 39.492,12.621ZM12.622,39.491C14.88,41.749 17.26,43.755 19.688,45.479C19.303,45.611 18.921,45.733 18.544,45.844C13.187,47.42 9.42,46.66 7.436,44.676C6.069,43.309 5.287,41.149 5.446,38.115C5.535,36.396 5.928,34.474 6.634,32.424C8.357,34.853 10.363,37.232 12.622,39.491ZM32,26C32,29.314 29.314,32 26,32C22.686,32 20,29.314 20,26C20,22.686 22.686,20 26,20C29.314,20 32,22.686 32,26Z" clip-rule="evenodd" fill-rule="evenodd" fill="#3F9142"/>
</svg>
